<mxfile host="app.diagrams.net" modified="2024-04-06T14:05:35.732Z" agent="Mozilla/5.0 (Windows NT 10.0; Win64; x64) AppleWebKit/537.36 (KHTML, like Gecko) Chrome/121.0.0.0 Safari/537.36 OPR/107.0.0.0" etag="cAonMazYAL58qdiePnQ-" version="24.1.0" type="google">
  <diagram name="Page-1" id="Zoi80_MRHQW-4yqYiHco">
    <mxGraphModel grid="1" page="1" gridSize="10" guides="1" tooltips="1" connect="1" arrows="1" fold="1" pageScale="1" pageWidth="850" pageHeight="1100" math="0" shadow="0">
      <root>
        <mxCell id="0" />
        <mxCell id="1" parent="0" />
        <mxCell id="vUfVMMkGRGk2OlgJo8um-5" value="Members" style="swimlane;fontStyle=1;align=center;verticalAlign=top;childLayout=stackLayout;horizontal=1;startSize=26;horizontalStack=0;resizeParent=1;resizeParentMax=0;resizeLast=0;collapsible=1;marginBottom=0;whiteSpace=wrap;html=1;" vertex="1" parent="1">
          <mxGeometry x="330" y="350" width="160" height="118" as="geometry" />
        </mxCell>
        <mxCell id="vUfVMMkGRGk2OlgJo8um-6" value="&lt;u&gt;Member ID&lt;/u&gt;&lt;div&gt;First Name&lt;/div&gt;&lt;div&gt;Last Name&lt;/div&gt;&lt;div&gt;Email&lt;/div&gt;&lt;div&gt;Date of Birth&lt;/div&gt;&lt;div&gt;&lt;br&gt;&lt;/div&gt;" style="text;strokeColor=none;fillColor=none;align=left;verticalAlign=top;spacingLeft=4;spacingRight=4;overflow=hidden;rotatable=0;points=[[0,0.5],[1,0.5]];portConstraint=eastwest;whiteSpace=wrap;html=1;" vertex="1" parent="vUfVMMkGRGk2OlgJo8um-5">
          <mxGeometry y="26" width="160" height="84" as="geometry" />
        </mxCell>
        <mxCell id="vUfVMMkGRGk2OlgJo8um-7" value="" style="line;strokeWidth=1;fillColor=none;align=left;verticalAlign=middle;spacingTop=-1;spacingLeft=3;spacingRight=3;rotatable=0;labelPosition=right;points=[];portConstraint=eastwest;strokeColor=inherit;" vertex="1" parent="vUfVMMkGRGk2OlgJo8um-5">
          <mxGeometry y="110" width="160" height="8" as="geometry" />
        </mxCell>
        <mxCell id="vUfVMMkGRGk2OlgJo8um-9" value="Member Goals" style="swimlane;fontStyle=1;align=center;verticalAlign=top;childLayout=stackLayout;horizontal=1;startSize=26;horizontalStack=0;resizeParent=1;resizeParentMax=0;resizeLast=0;collapsible=1;marginBottom=0;whiteSpace=wrap;html=1;" vertex="1" parent="1">
          <mxGeometry x="790" y="340" width="160" height="118" as="geometry" />
        </mxCell>
        <mxCell id="vUfVMMkGRGk2OlgJo8um-10" value="&lt;u&gt;Goal ID&lt;/u&gt;&lt;div&gt;Goal Type&lt;/div&gt;&lt;div&gt;Target Value&lt;/div&gt;&lt;div&gt;Start Date&lt;/div&gt;&lt;div&gt;End Date&lt;/div&gt;&lt;div&gt;&lt;br&gt;&lt;/div&gt;" style="text;strokeColor=none;fillColor=none;align=left;verticalAlign=top;spacingLeft=4;spacingRight=4;overflow=hidden;rotatable=0;points=[[0,0.5],[1,0.5]];portConstraint=eastwest;whiteSpace=wrap;html=1;" vertex="1" parent="vUfVMMkGRGk2OlgJo8um-9">
          <mxGeometry y="26" width="160" height="84" as="geometry" />
        </mxCell>
        <mxCell id="vUfVMMkGRGk2OlgJo8um-11" value="" style="line;strokeWidth=1;fillColor=none;align=left;verticalAlign=middle;spacingTop=-1;spacingLeft=3;spacingRight=3;rotatable=0;labelPosition=right;points=[];portConstraint=eastwest;strokeColor=inherit;" vertex="1" parent="vUfVMMkGRGk2OlgJo8um-9">
          <mxGeometry y="110" width="160" height="8" as="geometry" />
        </mxCell>
        <mxCell id="vUfVMMkGRGk2OlgJo8um-12" value="Health Metrics" style="swimlane;fontStyle=1;align=center;verticalAlign=top;childLayout=stackLayout;horizontal=1;startSize=26;horizontalStack=0;resizeParent=1;resizeParentMax=0;resizeLast=0;collapsible=1;marginBottom=0;whiteSpace=wrap;html=1;" vertex="1" parent="1">
          <mxGeometry x="780" y="182" width="160" height="118" as="geometry" />
        </mxCell>
        <mxCell id="vUfVMMkGRGk2OlgJo8um-13" value="&lt;u&gt;Metric ID&lt;/u&gt;&lt;div&gt;Metric Type&lt;/div&gt;&lt;div&gt;Value&lt;/div&gt;&lt;div&gt;Record Date&lt;/div&gt;" style="text;strokeColor=none;fillColor=none;align=left;verticalAlign=top;spacingLeft=4;spacingRight=4;overflow=hidden;rotatable=0;points=[[0,0.5],[1,0.5]];portConstraint=eastwest;whiteSpace=wrap;html=1;" vertex="1" parent="vUfVMMkGRGk2OlgJo8um-12">
          <mxGeometry y="26" width="160" height="84" as="geometry" />
        </mxCell>
        <mxCell id="vUfVMMkGRGk2OlgJo8um-14" value="" style="line;strokeWidth=1;fillColor=none;align=left;verticalAlign=middle;spacingTop=-1;spacingLeft=3;spacingRight=3;rotatable=0;labelPosition=right;points=[];portConstraint=eastwest;strokeColor=inherit;" vertex="1" parent="vUfVMMkGRGk2OlgJo8um-12">
          <mxGeometry y="110" width="160" height="8" as="geometry" />
        </mxCell>
        <mxCell id="vUfVMMkGRGk2OlgJo8um-15" value="Trainers" style="swimlane;fontStyle=1;align=center;verticalAlign=top;childLayout=stackLayout;horizontal=1;startSize=26;horizontalStack=0;resizeParent=1;resizeParentMax=0;resizeLast=0;collapsible=1;marginBottom=0;whiteSpace=wrap;html=1;" vertex="1" parent="1">
          <mxGeometry x="-130" y="512" width="160" height="128" as="geometry" />
        </mxCell>
        <mxCell id="vUfVMMkGRGk2OlgJo8um-16" value="&lt;u&gt;Trainer ID&lt;/u&gt;&lt;div&gt;First Name&lt;/div&gt;&lt;div&gt;Last Name&lt;/div&gt;&lt;div&gt;Specialization&lt;/div&gt;&lt;div&gt;Start Time&lt;/div&gt;&lt;div&gt;End Time&lt;/div&gt;&lt;div&gt;&lt;br&gt;&lt;/div&gt;" style="text;strokeColor=none;fillColor=none;align=left;verticalAlign=top;spacingLeft=4;spacingRight=4;overflow=hidden;rotatable=0;points=[[0,0.5],[1,0.5]];portConstraint=eastwest;whiteSpace=wrap;html=1;" vertex="1" parent="vUfVMMkGRGk2OlgJo8um-15">
          <mxGeometry y="26" width="160" height="94" as="geometry" />
        </mxCell>
        <mxCell id="vUfVMMkGRGk2OlgJo8um-17" value="" style="line;strokeWidth=1;fillColor=none;align=left;verticalAlign=middle;spacingTop=-1;spacingLeft=3;spacingRight=3;rotatable=0;labelPosition=right;points=[];portConstraint=eastwest;strokeColor=inherit;" vertex="1" parent="vUfVMMkGRGk2OlgJo8um-15">
          <mxGeometry y="120" width="160" height="8" as="geometry" />
        </mxCell>
        <mxCell id="vUfVMMkGRGk2OlgJo8um-18" value="Training Sessions" style="swimlane;fontStyle=1;align=center;verticalAlign=top;childLayout=stackLayout;horizontal=1;startSize=26;horizontalStack=0;resizeParent=1;resizeParentMax=0;resizeLast=0;collapsible=1;marginBottom=0;whiteSpace=wrap;html=1;" vertex="1" parent="1">
          <mxGeometry x="830" y="490" width="160" height="88" as="geometry" />
        </mxCell>
        <mxCell id="vUfVMMkGRGk2OlgJo8um-19" value="&lt;u&gt;Session ID&lt;/u&gt;&lt;div&gt;Start Time&amp;nbsp;&lt;/div&gt;&lt;div&gt;End Time&lt;/div&gt;&lt;div&gt;&lt;br&gt;&lt;/div&gt;" style="text;strokeColor=none;fillColor=none;align=left;verticalAlign=top;spacingLeft=4;spacingRight=4;overflow=hidden;rotatable=0;points=[[0,0.5],[1,0.5]];portConstraint=eastwest;whiteSpace=wrap;html=1;" vertex="1" parent="vUfVMMkGRGk2OlgJo8um-18">
          <mxGeometry y="26" width="160" height="54" as="geometry" />
        </mxCell>
        <mxCell id="vUfVMMkGRGk2OlgJo8um-20" value="" style="line;strokeWidth=1;fillColor=none;align=left;verticalAlign=middle;spacingTop=-1;spacingLeft=3;spacingRight=3;rotatable=0;labelPosition=right;points=[];portConstraint=eastwest;strokeColor=inherit;" vertex="1" parent="vUfVMMkGRGk2OlgJo8um-18">
          <mxGeometry y="80" width="160" height="8" as="geometry" />
        </mxCell>
        <mxCell id="vUfVMMkGRGk2OlgJo8um-21" value="Group Classes" style="swimlane;fontStyle=1;align=center;verticalAlign=top;childLayout=stackLayout;horizontal=1;startSize=26;horizontalStack=0;resizeParent=1;resizeParentMax=0;resizeLast=0;collapsible=1;marginBottom=0;whiteSpace=wrap;html=1;" vertex="1" parent="1">
          <mxGeometry x="300" y="578" width="160" height="108" as="geometry" />
        </mxCell>
        <mxCell id="vUfVMMkGRGk2OlgJo8um-22" value="&lt;u&gt;Class ID&lt;/u&gt;&lt;div&gt;Name&lt;/div&gt;&lt;div&gt;Start Time&lt;/div&gt;&lt;div&gt;End Time&lt;/div&gt;&lt;div&gt;&lt;br&gt;&lt;/div&gt;" style="text;strokeColor=none;fillColor=none;align=left;verticalAlign=top;spacingLeft=4;spacingRight=4;overflow=hidden;rotatable=0;points=[[0,0.5],[1,0.5]];portConstraint=eastwest;whiteSpace=wrap;html=1;" vertex="1" parent="vUfVMMkGRGk2OlgJo8um-21">
          <mxGeometry y="26" width="160" height="74" as="geometry" />
        </mxCell>
        <mxCell id="vUfVMMkGRGk2OlgJo8um-23" value="" style="line;strokeWidth=1;fillColor=none;align=left;verticalAlign=middle;spacingTop=-1;spacingLeft=3;spacingRight=3;rotatable=0;labelPosition=right;points=[];portConstraint=eastwest;strokeColor=inherit;" vertex="1" parent="vUfVMMkGRGk2OlgJo8um-21">
          <mxGeometry y="100" width="160" height="8" as="geometry" />
        </mxCell>
        <mxCell id="vUfVMMkGRGk2OlgJo8um-24" value="Class Registrations" style="swimlane;fontStyle=1;align=center;verticalAlign=top;childLayout=stackLayout;horizontal=1;startSize=26;horizontalStack=0;resizeParent=1;resizeParentMax=0;resizeLast=0;collapsible=1;marginBottom=0;whiteSpace=wrap;html=1;" vertex="1" parent="1">
          <mxGeometry x="740" y="640" width="160" height="68" as="geometry" />
        </mxCell>
        <mxCell id="vUfVMMkGRGk2OlgJo8um-25" value="&lt;div&gt;&lt;u&gt;Registration ID&lt;/u&gt;&lt;/div&gt;" style="text;strokeColor=none;fillColor=none;align=left;verticalAlign=top;spacingLeft=4;spacingRight=4;overflow=hidden;rotatable=0;points=[[0,0.5],[1,0.5]];portConstraint=eastwest;whiteSpace=wrap;html=1;" vertex="1" parent="vUfVMMkGRGk2OlgJo8um-24">
          <mxGeometry y="26" width="160" height="34" as="geometry" />
        </mxCell>
        <mxCell id="vUfVMMkGRGk2OlgJo8um-26" value="" style="line;strokeWidth=1;fillColor=none;align=left;verticalAlign=middle;spacingTop=-1;spacingLeft=3;spacingRight=3;rotatable=0;labelPosition=right;points=[];portConstraint=eastwest;strokeColor=inherit;" vertex="1" parent="vUfVMMkGRGk2OlgJo8um-24">
          <mxGeometry y="60" width="160" height="8" as="geometry" />
        </mxCell>
        <mxCell id="vUfVMMkGRGk2OlgJo8um-27" value="Equipment" style="swimlane;fontStyle=1;align=center;verticalAlign=top;childLayout=stackLayout;horizontal=1;startSize=26;horizontalStack=0;resizeParent=1;resizeParentMax=0;resizeLast=0;collapsible=1;marginBottom=0;whiteSpace=wrap;html=1;" vertex="1" parent="1">
          <mxGeometry x="80" y="190" width="160" height="88" as="geometry" />
        </mxCell>
        <mxCell id="vUfVMMkGRGk2OlgJo8um-28" value="&lt;div&gt;&lt;u&gt;Equipment ID&lt;/u&gt;&lt;/div&gt;&lt;div&gt;Name&lt;/div&gt;&lt;div&gt;Status&lt;/div&gt;" style="text;strokeColor=none;fillColor=none;align=left;verticalAlign=top;spacingLeft=4;spacingRight=4;overflow=hidden;rotatable=0;points=[[0,0.5],[1,0.5]];portConstraint=eastwest;whiteSpace=wrap;html=1;" vertex="1" parent="vUfVMMkGRGk2OlgJo8um-27">
          <mxGeometry y="26" width="160" height="54" as="geometry" />
        </mxCell>
        <mxCell id="vUfVMMkGRGk2OlgJo8um-29" value="" style="line;strokeWidth=1;fillColor=none;align=left;verticalAlign=middle;spacingTop=-1;spacingLeft=3;spacingRight=3;rotatable=0;labelPosition=right;points=[];portConstraint=eastwest;strokeColor=inherit;" vertex="1" parent="vUfVMMkGRGk2OlgJo8um-27">
          <mxGeometry y="80" width="160" height="8" as="geometry" />
        </mxCell>
        <mxCell id="vUfVMMkGRGk2OlgJo8um-30" value="Rooms" style="swimlane;fontStyle=1;align=center;verticalAlign=top;childLayout=stackLayout;horizontal=1;startSize=26;horizontalStack=0;resizeParent=1;resizeParentMax=0;resizeLast=0;collapsible=1;marginBottom=0;whiteSpace=wrap;html=1;" vertex="1" parent="1">
          <mxGeometry x="-130" y="660" width="160" height="88" as="geometry" />
        </mxCell>
        <mxCell id="vUfVMMkGRGk2OlgJo8um-31" value="&lt;u&gt;Room ID&lt;/u&gt;&lt;div&gt;Name&lt;/div&gt;&lt;div&gt;Capacity&lt;/div&gt;&lt;div&gt;&lt;br&gt;&lt;/div&gt;" style="text;strokeColor=none;fillColor=none;align=left;verticalAlign=top;spacingLeft=4;spacingRight=4;overflow=hidden;rotatable=0;points=[[0,0.5],[1,0.5]];portConstraint=eastwest;whiteSpace=wrap;html=1;" vertex="1" parent="vUfVMMkGRGk2OlgJo8um-30">
          <mxGeometry y="26" width="160" height="54" as="geometry" />
        </mxCell>
        <mxCell id="vUfVMMkGRGk2OlgJo8um-32" value="" style="line;strokeWidth=1;fillColor=none;align=left;verticalAlign=middle;spacingTop=-1;spacingLeft=3;spacingRight=3;rotatable=0;labelPosition=right;points=[];portConstraint=eastwest;strokeColor=inherit;" vertex="1" parent="vUfVMMkGRGk2OlgJo8um-30">
          <mxGeometry y="80" width="160" height="8" as="geometry" />
        </mxCell>
        <mxCell id="vUfVMMkGRGk2OlgJo8um-33" value="Billing" style="swimlane;fontStyle=1;align=center;verticalAlign=top;childLayout=stackLayout;horizontal=1;startSize=26;horizontalStack=0;resizeParent=1;resizeParentMax=0;resizeLast=0;collapsible=1;marginBottom=0;whiteSpace=wrap;html=1;" vertex="1" parent="1">
          <mxGeometry x="-140" y="365" width="160" height="88" as="geometry" />
        </mxCell>
        <mxCell id="vUfVMMkGRGk2OlgJo8um-34" value="&lt;div&gt;&lt;u&gt;Bill ID&lt;/u&gt;&lt;/div&gt;&lt;div&gt;Amount&lt;/div&gt;&lt;div&gt;Payment Status&lt;/div&gt;" style="text;strokeColor=none;fillColor=none;align=left;verticalAlign=top;spacingLeft=4;spacingRight=4;overflow=hidden;rotatable=0;points=[[0,0.5],[1,0.5]];portConstraint=eastwest;whiteSpace=wrap;html=1;" vertex="1" parent="vUfVMMkGRGk2OlgJo8um-33">
          <mxGeometry y="26" width="160" height="54" as="geometry" />
        </mxCell>
        <mxCell id="vUfVMMkGRGk2OlgJo8um-35" value="" style="line;strokeWidth=1;fillColor=none;align=left;verticalAlign=middle;spacingTop=-1;spacingLeft=3;spacingRight=3;rotatable=0;labelPosition=right;points=[];portConstraint=eastwest;strokeColor=inherit;" vertex="1" parent="vUfVMMkGRGk2OlgJo8um-33">
          <mxGeometry y="80" width="160" height="8" as="geometry" />
        </mxCell>
        <mxCell id="vUfVMMkGRGk2OlgJo8um-36" value="Bank Account" style="swimlane;fontStyle=1;align=center;verticalAlign=top;childLayout=stackLayout;horizontal=1;startSize=26;horizontalStack=0;resizeParent=1;resizeParentMax=0;resizeLast=0;collapsible=1;marginBottom=0;whiteSpace=wrap;html=1;" vertex="1" parent="1">
          <mxGeometry x="330" y="100" width="160" height="78" as="geometry" />
        </mxCell>
        <mxCell id="vUfVMMkGRGk2OlgJo8um-37" value="&lt;div&gt;&lt;u&gt;Bank Account ID&lt;/u&gt;&lt;/div&gt;&lt;div&gt;Amount&lt;/div&gt;" style="text;strokeColor=none;fillColor=none;align=left;verticalAlign=top;spacingLeft=4;spacingRight=4;overflow=hidden;rotatable=0;points=[[0,0.5],[1,0.5]];portConstraint=eastwest;whiteSpace=wrap;html=1;" vertex="1" parent="vUfVMMkGRGk2OlgJo8um-36">
          <mxGeometry y="26" width="160" height="44" as="geometry" />
        </mxCell>
        <mxCell id="vUfVMMkGRGk2OlgJo8um-38" value="" style="line;strokeWidth=1;fillColor=none;align=left;verticalAlign=middle;spacingTop=-1;spacingLeft=3;spacingRight=3;rotatable=0;labelPosition=right;points=[];portConstraint=eastwest;strokeColor=inherit;" vertex="1" parent="vUfVMMkGRGk2OlgJo8um-36">
          <mxGeometry y="70" width="160" height="8" as="geometry" />
        </mxCell>
        <mxCell id="vUfVMMkGRGk2OlgJo8um-41" style="edgeStyle=orthogonalEdgeStyle;rounded=0;orthogonalLoop=1;jettySize=auto;html=1;exitX=0.5;exitY=1;exitDx=0;exitDy=0;entryX=0.5;entryY=0;entryDx=0;entryDy=0;" edge="1" parent="1" source="vUfVMMkGRGk2OlgJo8um-39" target="vUfVMMkGRGk2OlgJo8um-5">
          <mxGeometry relative="1" as="geometry" />
        </mxCell>
        <mxCell id="vUfVMMkGRGk2OlgJo8um-42" style="edgeStyle=orthogonalEdgeStyle;rounded=0;orthogonalLoop=1;jettySize=auto;html=1;exitX=0.5;exitY=0;exitDx=0;exitDy=0;entryX=0.5;entryY=1;entryDx=0;entryDy=0;" edge="1" parent="1" source="vUfVMMkGRGk2OlgJo8um-39" target="vUfVMMkGRGk2OlgJo8um-36">
          <mxGeometry relative="1" as="geometry" />
        </mxCell>
        <mxCell id="vUfVMMkGRGk2OlgJo8um-39" value="Must have" style="rhombus;whiteSpace=wrap;html=1;" vertex="1" parent="1">
          <mxGeometry x="340" y="220" width="140" height="80" as="geometry" />
        </mxCell>
        <mxCell id="vUfVMMkGRGk2OlgJo8um-45" style="edgeStyle=orthogonalEdgeStyle;rounded=0;orthogonalLoop=1;jettySize=auto;html=1;" edge="1" parent="1" source="vUfVMMkGRGk2OlgJo8um-43" target="vUfVMMkGRGk2OlgJo8um-6">
          <mxGeometry relative="1" as="geometry" />
        </mxCell>
        <mxCell id="vUfVMMkGRGk2OlgJo8um-43" value="Can add to&amp;nbsp;&lt;div&gt;their profile&lt;/div&gt;" style="rhombus;whiteSpace=wrap;html=1;" vertex="1" parent="1">
          <mxGeometry x="560" y="378" width="140" height="80" as="geometry" />
        </mxCell>
        <mxCell id="vUfVMMkGRGk2OlgJo8um-46" value="" style="endArrow=none;html=1;rounded=0;exitX=0.693;exitY=0.15;exitDx=0;exitDy=0;exitPerimeter=0;entryX=0;entryY=0.81;entryDx=0;entryDy=0;entryPerimeter=0;" edge="1" parent="1" source="vUfVMMkGRGk2OlgJo8um-43" target="vUfVMMkGRGk2OlgJo8um-13">
          <mxGeometry width="50" height="50" relative="1" as="geometry">
            <mxPoint x="650" y="370" as="sourcePoint" />
            <mxPoint x="700" y="320" as="targetPoint" />
          </mxGeometry>
        </mxCell>
        <mxCell id="vUfVMMkGRGk2OlgJo8um-47" value="" style="endArrow=none;html=1;rounded=0;exitX=0.693;exitY=0.15;exitDx=0;exitDy=0;exitPerimeter=0;entryX=-0.012;entryY=0.298;entryDx=0;entryDy=0;entryPerimeter=0;" edge="1" parent="1" target="vUfVMMkGRGk2OlgJo8um-10">
          <mxGeometry width="50" height="50" relative="1" as="geometry">
            <mxPoint x="667" y="400" as="sourcePoint" />
            <mxPoint x="740" y="304" as="targetPoint" />
          </mxGeometry>
        </mxCell>
        <mxCell id="vUfVMMkGRGk2OlgJo8um-48" value="" style="endArrow=none;html=1;rounded=0;exitX=1;exitY=1;exitDx=0;exitDy=0;entryX=0;entryY=0.5;entryDx=0;entryDy=0;" edge="1" parent="1" source="vUfVMMkGRGk2OlgJo8um-43" target="vUfVMMkGRGk2OlgJo8um-19">
          <mxGeometry width="50" height="50" relative="1" as="geometry">
            <mxPoint x="677" y="410" as="sourcePoint" />
            <mxPoint x="750" y="314" as="targetPoint" />
          </mxGeometry>
        </mxCell>
        <mxCell id="vUfVMMkGRGk2OlgJo8um-49" value="" style="endArrow=none;html=1;rounded=0;exitX=0.5;exitY=1;exitDx=0;exitDy=0;entryX=0.5;entryY=0;entryDx=0;entryDy=0;" edge="1" parent="1" source="vUfVMMkGRGk2OlgJo8um-43" target="vUfVMMkGRGk2OlgJo8um-24">
          <mxGeometry width="50" height="50" relative="1" as="geometry">
            <mxPoint x="687" y="420" as="sourcePoint" />
            <mxPoint x="760" y="324" as="targetPoint" />
          </mxGeometry>
        </mxCell>
        <mxCell id="vUfVMMkGRGk2OlgJo8um-50" value="0 .. *" style="text;html=1;align=center;verticalAlign=middle;resizable=0;points=[];autosize=1;strokeColor=none;fillColor=none;" vertex="1" parent="1">
          <mxGeometry x="630" y="340" width="50" height="30" as="geometry" />
        </mxCell>
        <mxCell id="vUfVMMkGRGk2OlgJo8um-51" value="0 .. *" style="text;html=1;align=center;verticalAlign=middle;resizable=0;points=[];autosize=1;strokeColor=none;fillColor=none;" vertex="1" parent="1">
          <mxGeometry x="670" y="370" width="50" height="30" as="geometry" />
        </mxCell>
        <mxCell id="vUfVMMkGRGk2OlgJo8um-52" value="0 .. *" style="text;html=1;align=center;verticalAlign=middle;resizable=0;points=[];autosize=1;strokeColor=none;fillColor=none;" vertex="1" parent="1">
          <mxGeometry x="680" y="420" width="50" height="30" as="geometry" />
        </mxCell>
        <mxCell id="vUfVMMkGRGk2OlgJo8um-53" value="0 .. *" style="text;html=1;align=center;verticalAlign=middle;resizable=0;points=[];autosize=1;strokeColor=none;fillColor=none;" vertex="1" parent="1">
          <mxGeometry x="640" y="450" width="50" height="30" as="geometry" />
        </mxCell>
        <mxCell id="vUfVMMkGRGk2OlgJo8um-55" style="edgeStyle=orthogonalEdgeStyle;rounded=0;orthogonalLoop=1;jettySize=auto;html=1;entryX=0;entryY=0.5;entryDx=0;entryDy=0;" edge="1" parent="1" source="vUfVMMkGRGk2OlgJo8um-54" target="vUfVMMkGRGk2OlgJo8um-6">
          <mxGeometry relative="1" as="geometry" />
        </mxCell>
        <mxCell id="vUfVMMkGRGk2OlgJo8um-54" value="Can be assigned" style="rhombus;whiteSpace=wrap;html=1;" vertex="1" parent="1">
          <mxGeometry x="100" y="378" width="140" height="80" as="geometry" />
        </mxCell>
        <mxCell id="vUfVMMkGRGk2OlgJo8um-57" value="" style="endArrow=none;html=1;rounded=0;exitX=1;exitY=0.5;exitDx=0;exitDy=0;entryX=0;entryY=0.5;entryDx=0;entryDy=0;" edge="1" parent="1" source="vUfVMMkGRGk2OlgJo8um-34" target="vUfVMMkGRGk2OlgJo8um-54">
          <mxGeometry width="50" height="50" relative="1" as="geometry">
            <mxPoint x="40" y="436" as="sourcePoint" />
            <mxPoint x="230" y="618" as="targetPoint" />
          </mxGeometry>
        </mxCell>
        <mxCell id="vUfVMMkGRGk2OlgJo8um-58" value="0 .. *" style="text;html=1;align=center;verticalAlign=middle;resizable=0;points=[];autosize=1;strokeColor=none;fillColor=none;" vertex="1" parent="1">
          <mxGeometry x="10" y="390" width="50" height="30" as="geometry" />
        </mxCell>
        <mxCell id="vUfVMMkGRGk2OlgJo8um-59" value="Is linked to" style="rhombus;whiteSpace=wrap;html=1;" vertex="1" parent="1">
          <mxGeometry x="540" y="643" width="140" height="80" as="geometry" />
        </mxCell>
        <mxCell id="vUfVMMkGRGk2OlgJo8um-61" style="edgeStyle=orthogonalEdgeStyle;rounded=0;orthogonalLoop=1;jettySize=auto;html=1;entryX=1.013;entryY=0.378;entryDx=0;entryDy=0;entryPerimeter=0;" edge="1" parent="1" source="vUfVMMkGRGk2OlgJo8um-59" target="vUfVMMkGRGk2OlgJo8um-22">
          <mxGeometry relative="1" as="geometry" />
        </mxCell>
        <mxCell id="vUfVMMkGRGk2OlgJo8um-62" value="" style="endArrow=none;html=1;rounded=0;entryX=0;entryY=0.5;entryDx=0;entryDy=0;" edge="1" parent="1" source="vUfVMMkGRGk2OlgJo8um-59" target="vUfVMMkGRGk2OlgJo8um-25">
          <mxGeometry width="50" height="50" relative="1" as="geometry">
            <mxPoint x="600" y="506" as="sourcePoint" />
            <mxPoint x="790" y="688" as="targetPoint" />
          </mxGeometry>
        </mxCell>
        <mxCell id="vUfVMMkGRGk2OlgJo8um-63" value="0 .. *" style="text;html=1;align=center;verticalAlign=middle;resizable=0;points=[];autosize=1;strokeColor=none;fillColor=none;" vertex="1" parent="1">
          <mxGeometry x="680" y="650" width="50" height="30" as="geometry" />
        </mxCell>
        <mxCell id="vUfVMMkGRGk2OlgJo8um-69" style="edgeStyle=orthogonalEdgeStyle;rounded=0;orthogonalLoop=1;jettySize=auto;html=1;exitX=0;exitY=0.5;exitDx=0;exitDy=0;entryX=1;entryY=0.5;entryDx=0;entryDy=0;" edge="1" parent="1" source="vUfVMMkGRGk2OlgJo8um-64" target="vUfVMMkGRGk2OlgJo8um-31">
          <mxGeometry relative="1" as="geometry" />
        </mxCell>
        <mxCell id="vUfVMMkGRGk2OlgJo8um-70" style="edgeStyle=orthogonalEdgeStyle;rounded=0;orthogonalLoop=1;jettySize=auto;html=1;exitX=0.5;exitY=0;exitDx=0;exitDy=0;entryX=1;entryY=0.5;entryDx=0;entryDy=0;" edge="1" parent="1" source="vUfVMMkGRGk2OlgJo8um-64" target="vUfVMMkGRGk2OlgJo8um-16">
          <mxGeometry relative="1" as="geometry" />
        </mxCell>
        <mxCell id="vUfVMMkGRGk2OlgJo8um-64" value="Is linked to" style="rhombus;whiteSpace=wrap;html=1;" vertex="1" parent="1">
          <mxGeometry x="110" y="673" width="140" height="80" as="geometry" />
        </mxCell>
        <mxCell id="vUfVMMkGRGk2OlgJo8um-72" style="edgeStyle=orthogonalEdgeStyle;rounded=0;orthogonalLoop=1;jettySize=auto;html=1;exitX=1;exitY=0.5;exitDx=0;exitDy=0;entryX=0;entryY=0.351;entryDx=0;entryDy=0;entryPerimeter=0;endArrow=none;endFill=0;" edge="1" parent="1" source="vUfVMMkGRGk2OlgJo8um-64" target="vUfVMMkGRGk2OlgJo8um-22">
          <mxGeometry relative="1" as="geometry" />
        </mxCell>
        <mxCell id="vUfVMMkGRGk2OlgJo8um-73" value="0 .. *" style="text;html=1;align=center;verticalAlign=middle;resizable=0;points=[];autosize=1;strokeColor=none;fillColor=none;" vertex="1" parent="1">
          <mxGeometry x="230" y="680" width="50" height="30" as="geometry" />
        </mxCell>
        <mxCell id="vUfVMMkGRGk2OlgJo8um-79" style="edgeStyle=orthogonalEdgeStyle;rounded=0;orthogonalLoop=1;jettySize=auto;html=1;entryX=0;entryY=0.5;entryDx=0;entryDy=0;" edge="1" parent="1" source="vUfVMMkGRGk2OlgJo8um-75" target="vUfVMMkGRGk2OlgJo8um-16">
          <mxGeometry relative="1" as="geometry" />
        </mxCell>
        <mxCell id="vUfVMMkGRGk2OlgJo8um-80" style="edgeStyle=orthogonalEdgeStyle;rounded=0;orthogonalLoop=1;jettySize=auto;html=1;endArrow=none;endFill=0;" edge="1" parent="1" source="vUfVMMkGRGk2OlgJo8um-75" target="vUfVMMkGRGk2OlgJo8um-18">
          <mxGeometry relative="1" as="geometry" />
        </mxCell>
        <mxCell id="vUfVMMkGRGk2OlgJo8um-75" value="Is linked to" style="rhombus;whiteSpace=wrap;html=1;" vertex="1" parent="1">
          <mxGeometry x="890" y="930" width="140" height="80" as="geometry" />
        </mxCell>
        <mxCell id="vUfVMMkGRGk2OlgJo8um-81" value="0 .. *" style="text;html=1;align=center;verticalAlign=middle;resizable=0;points=[];autosize=1;strokeColor=none;fillColor=none;" vertex="1" parent="1">
          <mxGeometry x="910" y="718" width="50" height="30" as="geometry" />
        </mxCell>
      </root>
    </mxGraphModel>
  </diagram>
</mxfile>
